 http://www.imdb.com/title/tt0208092/

Source:Thanks!

Subs: Bosnian, Brazilian, Croatian, Danish, Dutch, English, Farsi-Persian, Finnish, French, Greek, Hebrew, Polish, Servian, Slovenian, Spanish, Swedish, Turkish and Vietnamese.

Sample and Screens included.

General
Complete name                    : Snatch-720p MP4 AACx264 BRRip 2000-CC.mp4
Format                           : MPEG-4
Format profile                   : Base Media
Codec ID                         : isom
File size                        : 2.21 GiB
Duration                         : 1h 42mn
Overall bit rate                 : 3 082 Kbps
Encoded date                     : UTC 2012-07-26 17:31:00

Video
ID                               : 1
Format                           : AVC
Format/Info                      : Advanced Video Codec
Format profile                   : High@L3.1
Format settings, CABAC           : Yes
Format settings, ReFrames        : 5 frames
Codec ID                         : avc1
Codec ID/Info                    : Advanced Video Coding
Duration                         : 1h 42mn
Bit rate mode                    : Variable
Bit rate                         : 2 694 Kbps
Nominal bit rate                 : 2 727 Kbps
Maximum bit rate                 : 22.6 Mbps
Width                            : 1 280 pixels
Height                           : 688 pixels
Display aspect ratio             : 16:9
Frame rate mode                  : Variable
Frame rate                       : 23.976 fps
Minimum frame rate               : 19.048 fps
Maximum frame rate               : 24.390 fps
Resolution                       : 24 bits
Colorimetry                      : 4:2:0
Scan type                        : Progressive
Bits/(Pixel*Frame)               : 0.128
Stream size                      : 1.93 GiB (87%)
Writing library                  : x264 core 112

Audio
ID                               : 2
Format                           : AAC
Format/Info                      : Advanced Audio Codec
Format version                   : Version 4
Format profile                   : LC
Format settings, SBR             : No
Codec ID                         : 40
Duration                         : 1h 42mn
Bit rate mode                    : Variable
Bit rate                         : 384 Kbps
Maximum bit rate                 : 684 Kbps
Channel(s)                       : 6 channels
Channel positions                : Front: L C R, Rear: L R, LFE
Sampling rate                    : 48.0 KHz
Resolution                       : 16 bits
Stream size                      : 282 MiB (12%)
Language                         : English

Enjoy...

Requested by cmptrluvr's. 

Coming up soon: The Manchurian Candidate, Before the Devil Knows Youre Dead, The Recruit, The Bourne Trilogy....